<?xml version="1.0" encoding="UTF-8"?>
<svg xmlns="http://www.w3.org/2000/svg" xmlns:xlink="http://www.w3.org/1999/xlink" width="854" height="480" viewBox="0 0 854 480">
<defs>
<g>
<g id="glyph-0-0">
<path d="M 0.492188 -3.644531 L 2.515625 -3.644531 L 2.515625 -3.230469 L 1.75 -3.230469 L 1.75 -0.414062 L 2.515625 -0.414062 L 2.515625 0 L 0.492188 0 L 0.492188 -0.414062 L 1.253906 -0.414062 L 1.253906 -3.230469 L 0.492188 -3.230469 Z "/>
</g>
<g id="glyph-0-1">
<path d="M 0.046875 -3.632812 L 0.71875 -3.632812 L 2.144531 -0.640625 L 2.144531 -3.632812 L 2.671875 -3.632812 L 2.671875 0 L 1.996094 0 L 0.570312 -2.992188 L 0.570312 0 L 0.046875 0 Z "/>
</g>
<g id="glyph-0-2">
<path d="M 2.621094 -0.128906 C 2.496094 -0.0625 2.367188 -0.0117188 2.234375 0.0195312 C 2.101562 0.0546875 1.960938 0.0703125 1.8125 0.0703125 C 1.347656 0.0703125 0.984375 -0.09375 0.726562 -0.425781 C 0.46875 -0.753906 0.339844 -1.21875 0.339844 -1.820312 C 0.339844 -2.414062 0.46875 -2.878906 0.730469 -3.210938 C 0.988281 -3.542969 1.351562 -3.710938 1.8125 -3.710938 C 1.960938 -3.710938 2.101562 -3.695312 2.234375 -3.660156 C 2.367188 -3.628906 2.496094 -3.578125 2.621094 -3.511719 L 2.621094 -3.003906 C 2.5 -3.105469 2.371094 -3.179688 2.230469 -3.234375 C 2.09375 -3.285156 1.953125 -3.3125 1.8125 -3.3125 C 1.492188 -3.3125 1.253906 -3.1875 1.09375 -2.9375 C 0.933594 -2.691406 0.855469 -2.320312 0.855469 -1.820312 C 0.855469 -1.320312 0.933594 -0.949219 1.09375 -0.699219 C 1.253906 -0.453125 1.492188 -0.328125 1.8125 -0.328125 C 1.957031 -0.328125 2.097656 -0.355469 2.234375 -0.40625 C 2.371094 -0.460938 2.5 -0.535156 2.621094 -0.632812 Z "/>
</g>
<g id="glyph-0-3">
<path d="M 2.210938 -1.820312 C 2.210938 -2.355469 2.15625 -2.738281 2.042969 -2.964844 C 1.933594 -3.195312 1.753906 -3.3125 1.503906 -3.3125 C 1.253906 -3.3125 1.074219 -3.195312 0.964844 -2.964844 C 0.855469 -2.734375 0.800781 -2.355469 0.800781 -1.820312 C 0.800781 -1.285156 0.855469 -0.902344 0.964844 -0.671875 C 1.074219 -0.445312 1.253906 -0.328125 1.503906 -0.328125 C 1.753906 -0.328125 1.933594 -0.445312 2.042969 -0.671875 C 2.152344 -0.902344 2.210938 -1.285156 2.210938 -1.820312 Z M 2.726562 -1.820312 C 2.726562 -1.183594 2.625 -0.710938 2.421875 -0.398438 C 2.222656 -0.0859375 1.914062 0.0703125 1.503906 0.0703125 C 1.09375 0.0703125 0.785156 -0.0859375 0.585938 -0.394531 C 0.386719 -0.707031 0.285156 -1.179688 0.285156 -1.820312 C 0.285156 -2.457031 0.386719 -2.929688 0.585938 -3.242188 C 0.789062 -3.554688 1.09375 -3.710938 1.503906 -3.710938 C 1.914062 -3.710938 2.222656 -3.554688 2.421875 -3.242188 C 2.625 -2.929688 2.726562 -2.457031 2.726562 -1.820312 Z "/>
</g>
<g id="glyph-0-4">
<path d="M 0.0859375 -3.632812 L 0.746094 -3.632812 L 1.375 -1.78125 L 2.011719 -3.632812 L 2.671875 -3.632812 L 2.671875 0 L 2.21875 0 L 2.21875 -3.210938 L 1.566406 -1.296875 L 1.195312 -1.296875 L 0.542969 -3.210938 L 0.542969 0 L 0.0859375 0 Z "/>
</g>
<g id="glyph-0-5">
<path d="M 0.480469 -3.644531 L 2.644531 -3.644531 L 2.644531 -3.230469 L 0.972656 -3.230469 L 0.972656 -2.25 L 2.570312 -2.25 L 2.570312 -1.832031 L 0.972656 -1.832031 L 0.972656 -0.414062 L 2.691406 -0.414062 L 2.691406 0 L 0.480469 0 Z "/>
</g>
<g id="glyph-0-6">
<rect x="0" y="0" width="0" height="0" mask="url(#mask-0)"/>
</g>
<g id="glyph-0-7">
<path d="M 2.085938 -4.039062 C 1.871094 -3.667969 1.710938 -3.296875 1.601562 -2.929688 C 1.496094 -2.558594 1.441406 -2.1875 1.441406 -1.8125 C 1.441406 -1.441406 1.496094 -1.070312 1.601562 -0.699219 C 1.710938 -0.332031 1.871094 0.0390625 2.085938 0.414062 L 1.695312 0.414062 C 1.449219 0.0273438 1.269531 -0.347656 1.148438 -0.714844 C 1.027344 -1.082031 0.96875 -1.449219 0.96875 -1.8125 C 0.96875 -2.175781 1.027344 -2.542969 1.148438 -2.910156 C 1.269531 -3.277344 1.449219 -3.652344 1.695312 -4.039062 Z "/>
</g>
<g id="glyph-0-8">
<path d="M 1.6875 -1.414062 L 1.6875 -0.355469 C 1.867188 -0.359375 2.007812 -0.410156 2.109375 -0.503906 C 2.210938 -0.597656 2.261719 -0.726562 2.261719 -0.890625 C 2.261719 -1.042969 2.214844 -1.160156 2.125 -1.242188 C 2.03125 -1.328125 1.886719 -1.386719 1.6875 -1.414062 Z M 1.445312 -1.878906 L 1.445312 -2.886719 C 1.277344 -2.882812 1.144531 -2.832031 1.046875 -2.742188 C 0.953125 -2.652344 0.90625 -2.527344 0.90625 -2.375 C 0.90625 -2.234375 0.949219 -2.125 1.039062 -2.042969 C 1.128906 -1.960938 1.261719 -1.90625 1.445312 -1.878906 Z M 1.6875 0.734375 L 1.445312 0.734375 L 1.441406 0 C 1.277344 -0.0078125 1.113281 -0.03125 0.949219 -0.0703125 C 0.785156 -0.105469 0.625 -0.15625 0.464844 -0.226562 L 0.464844 -0.664062 C 0.625 -0.5625 0.789062 -0.484375 0.957031 -0.433594 C 1.121094 -0.378906 1.285156 -0.351562 1.445312 -0.347656 L 1.445312 -1.464844 C 1.121094 -1.515625 0.875 -1.613281 0.710938 -1.761719 C 0.546875 -1.910156 0.464844 -2.105469 0.464844 -2.351562 C 0.464844 -2.605469 0.550781 -2.808594 0.722656 -2.960938 C 0.894531 -3.113281 1.132812 -3.203125 1.445312 -3.226562 L 1.445312 -3.796875 L 1.6875 -3.796875 L 1.691406 -3.226562 C 1.820312 -3.21875 1.949219 -3.199219 2.082031 -3.175781 C 2.214844 -3.152344 2.347656 -3.117188 2.484375 -3.078125 L 2.484375 -2.652344 C 2.347656 -2.722656 2.210938 -2.777344 2.082031 -2.816406 C 1.949219 -2.855469 1.820312 -2.875 1.6875 -2.882812 L 1.6875 -1.832031 C 2.023438 -1.78125 2.28125 -1.675781 2.457031 -1.519531 C 2.632812 -1.359375 2.71875 -1.15625 2.71875 -0.90625 C 2.71875 -0.65625 2.625 -0.445312 2.433594 -0.277344 C 2.246094 -0.109375 1.996094 -0.0195312 1.691406 -0.00390625 Z "/>
</g>
<g id="glyph-0-9">
<path d="M 0.335938 -3.644531 L 0.828125 -3.644531 L 0.828125 -2.023438 L 2.371094 -3.644531 L 2.949219 -3.644531 L 1.53125 -2.15625 L 2.992188 0 L 2.394531 0 L 1.207031 -1.828125 L 0.828125 -1.425781 L 0.828125 0 L 0.335938 0 Z "/>
</g>
<g id="glyph-0-10">
<path d="M 0.851562 -4.039062 L 1.242188 -4.039062 C 1.488281 -3.65625 1.667969 -3.277344 1.789062 -2.910156 C 1.910156 -2.542969 1.96875 -2.175781 1.96875 -1.8125 C 1.96875 -1.445312 1.910156 -1.082031 1.789062 -0.710938 C 1.667969 -0.34375 1.484375 0.03125 1.242188 0.414062 L 0.851562 0.414062 C 1.066406 0.0390625 1.226562 -0.335938 1.335938 -0.707031 C 1.441406 -1.074219 1.492188 -1.445312 1.492188 -1.8125 C 1.492188 -2.183594 1.441406 -2.554688 1.335938 -2.925781 C 1.226562 -3.292969 1.066406 -3.664062 0.851562 -4.039062 Z "/>
</g>
</g>
<image id="source-42" x="0" y="0" width="0" height="0"/>
<mask id="mask-0">
<use xlink:href="#source-42"/>
</mask>
</defs>
<g fill="rgb(41.960784%, 44.705882%, 50.196078%)" fill-opacity="1">
<use xlink:href="#glyph-0-0" x="30" y="24.641602"/>
<use xlink:href="#glyph-0-1" x="33" y="24.641602"/>
<use xlink:href="#glyph-0-2" x="36" y="24.641602"/>
<use xlink:href="#glyph-0-3" x="39" y="24.641602"/>
<use xlink:href="#glyph-0-4" x="42" y="24.641602"/>
<use xlink:href="#glyph-0-5" x="45" y="24.641602"/>
<use xlink:href="#glyph-0-6" x="48" y="24.641602"/>
<use xlink:href="#glyph-0-7" x="51" y="24.641602"/>
<use xlink:href="#glyph-0-8" x="54" y="24.641602"/>
<use xlink:href="#glyph-0-9" x="57" y="24.641602"/>
<use xlink:href="#glyph-0-10" x="60" y="24.641602"/>
</g>
</svg>
