<?xml version="1.0" encoding="UTF-8"?>
<svg xmlns="http://www.w3.org/2000/svg" xmlns:xlink="http://www.w3.org/1999/xlink" width="854" height="480" viewBox="0 0 854 480">
<defs>
<g>
<g id="glyph-0-0">
<path d="M 0.296875 -3.238281 L 0.738281 -3.238281 L 0.738281 -2 L 1.9375 -2 L 1.9375 -3.238281 L 2.378906 -3.238281 L 2.378906 0 L 1.9375 0 L 1.9375 -1.628906 L 0.738281 -1.628906 L 0.738281 0 L 0.296875 0 Z "/>
</g>
<g id="glyph-0-1">
<path d="M 0.4375 -3.238281 L 2.234375 -3.238281 L 2.234375 -2.871094 L 1.554688 -2.871094 L 1.554688 -0.367188 L 2.234375 -0.367188 L 2.234375 0 L 0.4375 0 L 0.4375 -0.367188 L 1.117188 -0.367188 L 1.117188 -2.871094 L 0.4375 -2.871094 Z "/>
</g>
<g id="glyph-0-2">
<path d="M 2.394531 -0.265625 C 2.277344 -0.15625 2.148438 -0.078125 2 -0.0195312 C 1.851562 0.0351562 1.695312 0.0625 1.523438 0.0625 C 1.113281 0.0625 0.792969 -0.0859375 0.5625 -0.378906 C 0.335938 -0.671875 0.222656 -1.085938 0.222656 -1.617188 C 0.222656 -2.144531 0.335938 -2.558594 0.570312 -2.855469 C 0.800781 -3.152344 1.121094 -3.296875 1.535156 -3.296875 C 1.671875 -3.296875 1.800781 -3.28125 1.925781 -3.242188 C 2.050781 -3.203125 2.167969 -3.144531 2.285156 -3.066406 L 2.285156 -2.617188 C 2.167969 -2.730469 2.046875 -2.8125 1.925781 -2.863281 C 1.800781 -2.917969 1.671875 -2.941406 1.535156 -2.941406 C 1.25 -2.941406 1.035156 -2.832031 0.894531 -2.613281 C 0.75 -2.390625 0.679688 -2.058594 0.679688 -1.617188 C 0.679688 -1.167969 0.75 -0.832031 0.886719 -0.617188 C 1.023438 -0.402344 1.238281 -0.292969 1.523438 -0.292969 C 1.621094 -0.292969 1.707031 -0.304688 1.777344 -0.328125 C 1.851562 -0.347656 1.917969 -0.382812 1.976562 -0.433594 L 1.976562 -1.300781 L 1.507812 -1.300781 L 1.507812 -1.664062 L 2.394531 -1.664062 Z "/>
</g>
</g>
</defs>
<g fill="rgb(41.960784%, 44.705882%, 50.196078%)" fill-opacity="1">
<use xlink:href="#glyph-0-0" x="30" y="24.125"/>
<use xlink:href="#glyph-0-1" x="33" y="24.125"/>
<use xlink:href="#glyph-0-2" x="36" y="24.125"/>
<use xlink:href="#glyph-0-0" x="39" y="24.125"/>
</g>
</svg>
